<?xml version="1.0" encoding="utf-8"?>
<!-- Generator: Adobe Illustrator 21.1.0, SVG Export Plug-In . SVG Version: 6.00 Build 0)  -->
<svg version="1.1" id="图层_1" xmlns="http://www.w3.org/2000/svg" xmlns:xlink="http://www.w3.org/1999/xlink" x="0px" y="0px"
	 viewBox="0 0 40 40" style="enable-background:new 0 0 40 40;" xml:space="preserve">
<style type="text/css">
	.st0{fill:#999999;}
</style>
<path id="menu_icon1_normal" class="st0" d="M38,17.8L23.9,3.7c-2.2-2.2-5.7-2.2-7.9,0c0,0,0,0,0,0L2,17.6l1.6,1.6l1.7-1.7v17.1
	c0,1.9,1.5,3.4,3.4,3.4h22.5c1.9,0,3.4-1.5,3.4-3.4V17.5l1.9,1.9L38,17.8z M16.5,35.7V23.4c0-0.6,0.5-1.1,1.1-1.1h4.5
	c0.6,0,1.1,0.5,1.1,1.1v12.4H16.5L16.5,35.7z M32.3,34.6c0,0.6-0.5,1.1-1.1,1.1c0,0,0,0,0,0h-5.6V23.4c0-1.9-1.5-3.4-3.4-3.4h-4.5
	c-1.9,0-3.4,1.5-3.4,3.4v12.4H8.7c-0.6,0-1.1-0.5-1.1-1.1c0,0,0,0,0,0V15.2l10-10c1.3-1.3,3.4-1.3,4.8,0c0,0,0,0,0,0l10,10V34.6z"/>
</svg>
